<svg width="16" height="16" viewBox="0 0 16 16" fill="none" xmlns="http://www.w3.org/2000/svg">
<path d="M3.90016 11.4002C4.46683 10.9668 5.10016 10.6252 5.80016 10.3752C6.50016 10.1252 7.2335 10.0002 8.00016 10.0002C8.76683 10.0002 9.50016 10.1252 10.2002 10.3752C10.9002 10.6252 11.5335 10.9668 12.1002 11.4002C12.4891 10.9446 12.7918 10.4279 13.0085 9.85016C13.2252 9.27239 13.3335 8.65572 13.3335 8.00016C13.3335 6.52239 12.8141 5.26405 11.7752 4.22516C10.7363 3.18627 9.47794 2.66683 8.00016 2.66683C6.52239 2.66683 5.26405 3.18627 4.22516 4.22516C3.18627 5.26405 2.66683 6.52239 2.66683 8.00016C2.66683 8.65572 2.77516 9.27239 2.99183 9.85016C3.2085 10.4279 3.51127 10.9446 3.90016 11.4002ZM8.00016 8.66683C7.34461 8.66683 6.79183 8.44183 6.34183 7.99183C5.89183 7.54183 5.66683 6.98905 5.66683 6.3335C5.66683 5.67794 5.89183 5.12516 6.34183 4.67516C6.79183 4.22516 7.34461 4.00016 8.00016 4.00016C8.65572 4.00016 9.2085 4.22516 9.6585 4.67516C10.1085 5.12516 10.3335 5.67794 10.3335 6.3335C10.3335 6.98905 10.1085 7.54183 9.6585 7.99183C9.2085 8.44183 8.65572 8.66683 8.00016 8.66683ZM8.00016 14.6668C7.07794 14.6668 6.21127 14.4918 5.40016 14.1418C4.58905 13.7918 3.8835 13.3168 3.2835 12.7168C2.6835 12.1168 2.2085 11.4113 1.8585 10.6002C1.5085 9.78905 1.3335 8.92239 1.3335 8.00016C1.3335 7.07794 1.5085 6.21127 1.8585 5.40016C2.2085 4.58905 2.6835 3.8835 3.2835 3.2835C3.8835 2.6835 4.58905 2.2085 5.40016 1.8585C6.21127 1.5085 7.07794 1.3335 8.00016 1.3335C8.92239 1.3335 9.78905 1.5085 10.6002 1.8585C11.4113 2.2085 12.1168 2.6835 12.7168 3.2835C13.3168 3.8835 13.7918 4.58905 14.1418 5.40016C14.4918 6.21127 14.6668 7.07794 14.6668 8.00016C14.6668 8.92239 14.4918 9.78905 14.1418 10.6002C13.7918 11.4113 13.3168 12.1168 12.7168 12.7168C12.1168 13.3168 11.4113 13.7918 10.6002 14.1418C9.78905 14.4918 8.92239 14.6668 8.00016 14.6668Z" fill="#444444"/>
</svg>
