<svg width="20" height="20" viewBox="0 0 20 20" fill="none" xmlns="http://www.w3.org/2000/svg">
<g opacity="0.8">
<path d="M13.3333 17.5V4.16667C13.3333 3.72464 13.1577 3.30072 12.8452 2.98816C12.5326 2.67559 12.1087 2.5 11.6667 2.5H8.33333C7.8913 2.5 7.46738 2.67559 7.15482 2.98816C6.84226 3.30072 6.66666 3.72464 6.66666 4.16667V17.5M3.33333 5.83333H16.6667C17.5871 5.83333 18.3333 6.57953 18.3333 7.5V15.8333C18.3333 16.7538 17.5871 17.5 16.6667 17.5H3.33333C2.41286 17.5 1.66666 16.7538 1.66666 15.8333V7.5C1.66666 6.57953 2.41286 5.83333 3.33333 5.83333Z" stroke="#444444" stroke-width="2" stroke-linecap="round" stroke-linejoin="round"/>
</g>
</svg>
